<svg viewBox="0 0 161 173" version="1.1" xmlns="http://www.w3.org/2000/svg" xmlns:xlink="http://www.w3.org/1999/xlink">
    <!-- Generator: Sketch 41.2 (35397) - http://www.bohemiancoding.com/sketch -->
    <title>ideate</title>
    <desc>Created with Sketch.</desc>
    <defs>
        <rect id="path-1" x="62.7114247" y="147.12387" width="38.9354166" height="7.15965732" rx="3.57982866"></rect>
        <mask id="mask-2" maskContentUnits="userSpaceOnUse" maskUnits="objectBoundingBox" x="0" y="0" width="38.9354166" height="7.15965732" fill="white">
            <use xlink:href="#path-1"></use>
        </mask>
        <rect id="path-3" x="62.7114247" y="156.568342" width="38.9354166" height="7.15965732" rx="3.57982866"></rect>
        <mask id="mask-4" maskContentUnits="userSpaceOnUse" maskUnits="objectBoundingBox" x="0" y="0" width="38.9354166" height="7.15965732" fill="white">
            <use xlink:href="#path-3"></use>
        </mask>
        <rect id="path-5" x="4" y="80.657277" width="21.125" height="4.87323944" rx="2.43661972"></rect>
        <mask id="mask-6" maskContentUnits="userSpaceOnUse" maskUnits="objectBoundingBox" x="-2" y="-2" width="25.125" height="8.87323944">
            <rect x="2" y="78.657277" width="25.125" height="8.87323944" fill="white"></rect>
            <use xlink:href="#path-5" fill="black"></use>
        </mask>
        <rect id="path-7" x="136.875" y="80.657277" width="21.125" height="4.87323944" rx="2.43661972"></rect>
        <mask id="mask-8" maskContentUnits="userSpaceOnUse" maskUnits="objectBoundingBox" x="-2" y="-2" width="25.125" height="8.87323944">
            <rect x="134.875" y="78.657277" width="25.125" height="8.87323944" fill="white"></rect>
            <use xlink:href="#path-7" fill="black"></use>
        </mask>
        <rect id="path-9" x="70.4375" y="14.1220657" width="21.125" height="4.87323944" rx="2.43661972"></rect>
        <mask id="mask-10" maskContentUnits="userSpaceOnUse" maskUnits="objectBoundingBox" x="-2" y="-2" width="25.125" height="8.87323944">
            <rect x="68.4375" y="12.1220657" width="25.125" height="8.87323944" fill="white"></rect>
            <use xlink:href="#path-9" fill="black"></use>
        </mask>
        <rect id="path-11" x="122.004888" y="33.4331999" width="21.125" height="4.87323944" rx="2.43661972"></rect>
        <mask id="mask-12" maskContentUnits="userSpaceOnUse" maskUnits="objectBoundingBox" x="-2" y="-2" width="25.125" height="8.87323944">
            <rect x="120.004888" y="31.4331999" width="25.125" height="8.87323944" fill="white"></rect>
            <use xlink:href="#path-11" fill="black"></use>
        </mask>
        <rect id="path-13" x="20.3798882" y="34.2454064" width="21.125" height="4.87323944" rx="2.43661972"></rect>
        <mask id="mask-14" maskContentUnits="userSpaceOnUse" maskUnits="objectBoundingBox" x="-2" y="-2" width="25.125" height="8.87323944">
            <rect x="18.3798882" y="32.2454064" width="25.125" height="8.87323944" fill="white"></rect>
            <use xlink:href="#path-13" fill="black"></use>
        </mask>
    </defs>
    <g id="Symbols" stroke="none" stroke-width="1" fill="none" fill-rule="evenodd">
        <g id="ideate">
            <path d="M100.387983,127.13406 C114.550042,119.985985 124.3125,104.895737 124.3125,87.4360941 C124.3125,63.076219 105.308783,43.3286385 81.8665105,43.3286385 C58.4242378,43.3286385 39.420521,63.076219 39.420521,87.4360941 C39.420521,105.223582 49.5530458,120.551857 64.1474306,127.528287 L64.1081215,136.043991 C64.0953974,138.800464 66.3261994,141.035027 69.093312,141.035027 L95.7868979,141.035027 C98.5528667,141.035027 100.729713,138.801597 100.648714,136.036099 L100.387983,127.13406 Z" id="Line" stroke="#fff" stroke-width="7" stroke-linecap="square"></path>
            <use id="Rectangle-2" stroke="#fff" mask="url(#mask-2)" stroke-width="10" fill="#fff" xlink:href="#path-1"></use>
            <use id="Rectangle-2" stroke="#fff" mask="url(#mask-4)" stroke-width="10" fill="#fff" xlink:href="#path-3"></use>
            <rect id="Rectangle-9" fill="#fff" x="68.7575304" y="165.592239" width="25.8877578" height="6.71959566" rx="3.35979783"></rect>
            <g id="Rectangle-3">
                <use fill="#fff" fill-rule="evenodd" xlink:href="#path-5"></use>
                <use stroke="#fff" mask="url(#mask-6)" stroke-width="4" xlink:href="#path-5"></use>
            </g>
            <g id="Rectangle-3">
                <use fill="#fff" fill-rule="evenodd" xlink:href="#path-7"></use>
                <use stroke="#fff" mask="url(#mask-8)" stroke-width="4" xlink:href="#path-7"></use>
            </g>
            <g id="Rectangle-3" transform="translate(81.000000, 16.558685) rotate(90.000000) translate(-81.000000, -16.558685) ">
                <use fill="#fff" fill-rule="evenodd" xlink:href="#path-9"></use>
                <use stroke="#fff" mask="url(#mask-10)" stroke-width="4" xlink:href="#path-9"></use>
            </g>
            <g id="Rectangle-3" transform="translate(132.567388, 35.869820) rotate(-45.000000) translate(-132.567388, -35.869820) ">
                <use fill="#fff" fill-rule="evenodd" xlink:href="#path-11"></use>
                <use stroke="#fff" mask="url(#mask-12)" stroke-width="4" xlink:href="#path-11"></use>
            </g>
            <g id="Rectangle-3-Copy" transform="translate(30.942388, 36.682026) rotate(45.000000) translate(-30.942388, -36.682026) ">
                <use fill="#fff" fill-rule="evenodd" xlink:href="#path-13"></use>
                <use stroke="#fff" mask="url(#mask-14)" stroke-width="4" xlink:href="#path-13"></use>
            </g>
        </g>
    </g>
</svg>