<svg viewBox="0 0 107 140" version="1.1" xmlns="http://www.w3.org/2000/svg" xmlns:xlink="http://www.w3.org/1999/xlink">
    <!-- Generator: Sketch 41.2 (35397) - http://www.bohemiancoding.com/sketch -->
    <title>propose</title>
    <desc>Created with Sketch.</desc>
    <defs>
        <path d="M0,10.0068489 C0,4.48021887 4.47732849,0 9.9978808,0 L63.5672456,0 C69.0889227,0 76.6226482,3.26550345 80.3968676,7.29645635 L99.7050061,27.9179915 C103.478073,31.9477131 106.536747,39.6968094 106.536747,45.21496 L106.536747,129.14287 C106.536747,134.666001 102.060895,139.143383 96.5379815,139.143383 L9.99876574,139.143383 C4.4765999,139.143383 0,134.671426 0,129.136534 L0,10.0068489 Z" id="path-1"></path>
        <mask id="mask-2" maskContentUnits="userSpaceOnUse" maskUnits="objectBoundingBox" x="0" y="0" width="106.536747" height="139.143383" fill="white">
            <use xlink:href="#path-1"></use>
        </mask>
        <path d="M0,10.0068489 C0,4.48021887 4.47732849,0 9.9978808,0 L63.5672456,0 C69.0889227,0 73.5651264,4.47780436 73.5651264,9.9968536 L73.5651264,25.2175942 C73.5651264,30.738704 78.0461401,35.2144478 83.5695779,35.2144478 L96.5322958,35.2144478 C102.057602,35.2144478 106.536747,39.6968094 106.536747,45.21496 L106.536747,129.14287 C106.536747,134.666001 102.060895,139.143383 96.5379815,139.143383 L9.99876574,139.143383 C4.4765999,139.143383 0,134.671426 0,129.136534 L0,10.0068489 Z" id="path-3"></path>
        <mask id="mask-4" maskContentUnits="userSpaceOnUse" maskUnits="objectBoundingBox" x="0" y="0" width="106.536747" height="139.143383" fill="white">
            <use xlink:href="#path-3"></use>
        </mask>
        <rect id="path-5" x="23" y="47" width="63.9245929" height="2.08715074" rx="1.04357537"></rect>
        <mask id="mask-6" maskContentUnits="userSpaceOnUse" maskUnits="objectBoundingBox" x="-3" y="-3" width="69.9245929" height="8.08715074">
            <rect x="20" y="44" width="69.9245929" height="8.08715074" fill="white"></rect>
            <use xlink:href="#path-5" fill="black"></use>
        </mask>
        <rect id="path-7" x="23" y="66" width="63.9245929" height="2.08715074" rx="1.04357537"></rect>
        <mask id="mask-8" maskContentUnits="userSpaceOnUse" maskUnits="objectBoundingBox" x="-3" y="-3" width="69.9245929" height="8.08715074">
            <rect x="20" y="63" width="69.9245929" height="8.08715074" fill="white"></rect>
            <use xlink:href="#path-7" fill="black"></use>
        </mask>
        <rect id="path-9" x="23" y="86" width="63.9245929" height="2.08715074" rx="1.04357537"></rect>
        <mask id="mask-10" maskContentUnits="userSpaceOnUse" maskUnits="objectBoundingBox" x="-3" y="-3" width="69.9245929" height="8.08715074">
            <rect x="20" y="83" width="69.9245929" height="8.08715074" fill="white"></rect>
            <use xlink:href="#path-9" fill="black"></use>
        </mask>
        <rect id="path-11" x="23" y="105" width="35.1944388" height="2.08715074" rx="1.04357537"></rect>
        <mask id="mask-12" maskContentUnits="userSpaceOnUse" maskUnits="objectBoundingBox" x="-3" y="-3" width="41.1944388" height="8.08715074">
            <rect x="20" y="102" width="41.1944388" height="8.08715074" fill="white"></rect>
            <use xlink:href="#path-11" fill="black"></use>
        </mask>
    </defs>
    <g id="Symbols" stroke="none" stroke-width="1" fill="none" fill-rule="evenodd">
        <g id="propose">
            <use id="Rectangle-4" stroke="#fff" mask="url(#mask-2)" stroke-width="14" xlink:href="#path-1"></use>
            <use id="Rectangle-4-Copy" stroke="#fff" mask="url(#mask-4)" stroke-width="14" xlink:href="#path-3"></use>
            <g id="Rectangle-5">
                <use fill="#fff" fill-rule="evenodd" xlink:href="#path-5"></use>
                <use stroke="#fff" mask="url(#mask-6)" stroke-width="6" xlink:href="#path-5"></use>
            </g>
            <g id="Rectangle-5-Copy">
                <use fill="#fff" fill-rule="evenodd" xlink:href="#path-7"></use>
                <use stroke="#fff" mask="url(#mask-8)" stroke-width="6" xlink:href="#path-7"></use>
            </g>
            <g id="Rectangle-5-Copy-2">
                <use fill="#fff" fill-rule="evenodd" xlink:href="#path-9"></use>
                <use stroke="#fff" mask="url(#mask-10)" stroke-width="6" xlink:href="#path-9"></use>
            </g>
            <g id="Rectangle-5-Copy-3">
                <use fill="#fff" fill-rule="evenodd" xlink:href="#path-11"></use>
                <use stroke="#fff" mask="url(#mask-12)" stroke-width="6" xlink:href="#path-11"></use>
            </g>
        </g>
    </g>
</svg>