<svg viewBox="0 0 156 157" version="1.1" xmlns="http://www.w3.org/2000/svg" xmlns:xlink="http://www.w3.org/1999/xlink">
    <!-- Generator: Sketch 41.2 (35397) - http://www.bohemiancoding.com/sketch -->
    <title>implement</title>
    <desc>Created with Sketch.</desc>
    <defs>
        <path d="M87.4280887,13.2267833 L87.4280887,64.4129764 C92.0374296,66.0895342 95.3292699,70.5084085 95.3292699,75.6957017 L95.3292699,160.80823 C95.3292699,167.437168 89.9653214,172.810984 83.3225572,172.810984 L73.0067127,172.810984 C66.3755884,172.810984 61,167.437023 61,160.80823 L61,75.6957017 C61,70.7132322 64.0303026,66.4398297 68.3562721,64.6243809 L68.3562721,14.4965499 L62.2260454,3.06865001 L72.4134205,-15.9225404 L82.6482526,-16 L92.8771791,3.06865001 L87.4280887,13.2267833 Z" id="path-1"></path>
        <mask id="mask-2" maskContentUnits="userSpaceOnUse" maskUnits="objectBoundingBox" x="0" y="0" width="34.3292699" height="188.810984" fill="white">
            <use xlink:href="#path-1"></use>
        </mask>
        <path d="M97.0116838,168.436115 C103.710679,163.092762 107.98424,154.983487 107.98424,145.904245 C107.98424,135.120028 101.954925,125.70428 92.9933503,120.666627 L92.993342,36.5891853 C101.954925,31.5515276 107.98424,22.1357795 107.98424,11.351563 C107.98424,-4.73948701 94.5609327,-17.7838603 78.0024437,-17.7838603 C77.7880265,-17.7838603 77.574135,-17.7816731 77.3607916,-17.7773203 L86.2159093,5.29105016 C87.0081012,7.35478069 85.9764191,9.67030739 83.9224066,10.4587689 L70.9236563,15.4485217 C68.8647978,16.2388434 66.5530955,15.2053193 65.7613728,13.1428111 L57.0676357,-9.50514822 C51.4861719,-4.21380336 48.0206471,3.1755962 48.0206471,11.351563 C48.0206471,22.5921164 54.5710222,32.3459369 64.1646878,37.2049434 L64.1646914,120.050863 C54.5710238,124.909869 48.0206471,134.66369 48.0206471,145.904245 C48.0206471,161.368622 60.418762,174.01901 76.0826859,174.980904 L69.7409933,151.313385 C69.1688596,149.178153 70.4369285,146.983151 72.5621057,146.413712 L86.0112186,142.810033 C88.1414096,142.23925 90.3324154,143.508751 90.9042102,145.642718 L97.0116834,168.436118 Z" id="path-3"></path>
        <mask id="mask-4" maskContentUnits="userSpaceOnUse" maskUnits="objectBoundingBox" x="0" y="0" width="59.9635931" height="192.764764" fill="white">
            <use xlink:href="#path-3"></use>
        </mask>
    </defs>
    <g id="Symbols" stroke="none" stroke-width="1" fill="none" fill-rule="evenodd">
        <g id="implement">
            <use id="Combined-Shape" stroke="#fff" mask="url(#mask-2)" stroke-width="14" transform="translate(78.164635, 78.405492) rotate(-45.000000) translate(-78.164635, -78.405492) " xlink:href="#path-1"></use>
            <use id="Combined-Shape" stroke="#fff" mask="url(#mask-4)" stroke-width="10" fill="#fff" transform="translate(78.002444, 78.598522) rotate(45.000000) translate(-78.002444, -78.598522) " xlink:href="#path-3"></use>
            <rect id="Rectangle-10" fill="#FFFFFF" transform="translate(78.515611, 79.015611) rotate(45.000000) translate(-78.515611, -79.015611) " x="73.9414953" y="44.0138258" width="9.14823228" height="70.0035713" rx="4.57411614"></rect>
            <path d="M95,101 L126.819805,132.819805" id="Line" stroke="#fff" stroke-width="4" stroke-linecap="square"></path>
            <path d="M101,96 L132.819805,127.819805" id="Line-Copy" stroke="#fff" stroke-width="4" stroke-linecap="square"></path>
        </g>
    </g>
</svg>